<svg width="21" height="23" viewBox="0 0 21 23" fill="none" xmlns="http://www.w3.org/2000/svg">
<path d="M18.6667 16.4286V10.7333C18.0833 10.8429 17.5 10.9524 16.9167 10.9524H16.3333V17.5238H4.66667V9.85714C4.66667 6.79048 7.23333 4.38095 10.5 4.38095C10.6167 2.95714 11.3167 1.75238 12.25 0.766667C11.9 0.328571 11.2 0 10.5 0C9.21667 0 8.16667 0.985714 8.16667 2.19048V2.51905C4.66667 3.50476 2.33333 6.46191 2.33333 9.85714V16.4286L0 18.619V19.7143H21V18.619L18.6667 16.4286ZM8.16667 20.8095C8.16667 22.0143 9.21667 23 10.5 23C11.7833 23 12.8333 22.0143 12.8333 20.8095H8.16667ZM21 4.92857C21 7.00952 19.1333 8.7619 16.9167 8.7619C14.7 8.7619 12.8333 7.00952 12.8333 4.92857C12.8333 2.84762 14.7 1.09524 16.9167 1.09524C19.1333 1.09524 21 2.84762 21 4.92857Z" fill="black"/>
</svg>
