<svg width="32" height="32" viewBox="0 0 32 32" fill="none" xmlns="http://www.w3.org/2000/svg">
<path d="M16 29.3333C23.364 29.3333 29.3333 23.364 29.3333 16C29.3333 8.63596 23.364 2.66663 16 2.66663C8.63596 2.66663 2.66663 8.63596 2.66663 16C2.66663 23.364 8.63596 29.3333 16 29.3333Z" stroke="black" stroke-width="2.5" stroke-linecap="round" stroke-linejoin="round"/>
<path d="M16 15.3333C16.884 15.3333 17.7319 14.9821 18.357 14.357C18.9821 13.7319 19.3333 12.884 19.3333 12C19.3333 11.1159 18.9821 10.2681 18.357 9.64294C17.7319 9.01782 16.884 8.66663 16 8.66663C15.1159 8.66663 14.2681 9.01782 13.6429 9.64294C13.0178 10.2681 12.6666 11.1159 12.6666 12C12.6666 12.884 13.0178 13.7319 13.6429 14.357C14.2681 14.9821 15.1159 15.3333 16 15.3333Z" stroke="black" stroke-width="2.5" stroke-linejoin="round"/>
<path d="M6.68127 25.5546C6.91061 22.0806 9.80127 19.3333 13.3333 19.3333H18.6666C22.1939 19.3333 25.0819 22.0733 25.3179 25.5406" stroke="black" stroke-width="2.5" stroke-linecap="round" stroke-linejoin="round"/>
</svg>
