<svg width="36" height="22" viewBox="0 0 36 22" fill="none" xmlns="http://www.w3.org/2000/svg">
<path d="M9.6 0C5.64 0 2.4 3.3 2.4 7.33333C2.4 9.75822 3.5724 11.9167 5.3628 13.2538C2.1984 14.8524 0 18.1671 0 22H2.4C2.4 17.9373 5.6112 14.6667 9.6 14.6667C13.5888 14.6667 16.8 17.9373 16.8 22H19.2C19.2 17.9373 22.4112 14.6667 26.4 14.6667C30.3888 14.6667 33.6 17.9373 33.6 22H36C36 18.1659 33.8016 14.8524 30.6372 13.2538C31.5534 12.5738 32.2992 11.6833 32.814 10.6546C33.3288 9.62586 33.5981 8.48797 33.6 7.33333C33.6 3.3 30.36 0 26.4 0C22.44 0 19.2 3.3 19.2 7.33333C19.2 9.75822 20.3724 11.9167 22.1628 13.2538C20.4095 14.1318 18.9583 15.5298 18 17.2639C17.0417 15.5298 15.5905 14.1318 13.8372 13.2538C14.7534 12.5738 15.4992 11.6833 16.014 10.6546C16.5288 9.62586 16.7981 8.48797 16.8 7.33333C16.8 3.3 13.56 0 9.6 0ZM9.6 2.44444C12.2676 2.44444 14.4 4.61633 14.4 7.33333C14.4 10.0503 12.2676 12.2222 9.6 12.2222C6.9324 12.2222 4.8 10.0503 4.8 7.33333C4.8 4.61633 6.9324 2.44444 9.6 2.44444ZM26.4 2.44444C29.0676 2.44444 31.2 4.61633 31.2 7.33333C31.2 10.0503 29.0676 12.2222 26.4 12.2222C23.7324 12.2222 21.6 10.0503 21.6 7.33333C21.6 4.61633 23.7324 2.44444 26.4 2.44444Z" fill="black"/>
</svg>
