<svg width="20" height="21" viewBox="0 0 20 21" fill="none" xmlns="http://www.w3.org/2000/svg">
<path d="M15.0258 13.2642L18.595 16.8325L17.4158 18.0117L13.8475 14.4425C12.5198 15.5068 10.8683 16.0858 9.16666 16.0833C5.02666 16.0833 1.66666 12.7233 1.66666 8.58333C1.66666 4.44333 5.02666 1.08333 9.16666 1.08333C13.3067 1.08333 16.6667 4.44333 16.6667 8.58333C16.6691 10.285 16.0902 11.9364 15.0258 13.2642ZM13.3542 12.6458C14.4118 11.5582 15.0024 10.1004 15 8.58333C15 5.36 12.3892 2.75 9.16666 2.75C5.94332 2.75 3.33332 5.36 3.33332 8.58333C3.33332 11.8058 5.94332 14.4167 9.16666 14.4167C10.6837 14.4191 12.1416 13.8284 13.2292 12.7708L13.3542 12.6458Z" fill="#6D6D6D"/>
</svg>
